<svg width="35" height="80" viewBox="0 0 35 80" fill="none" xmlns="http://www.w3.org/2000/svg">
<path d="M34.6286 26.2821C34.9691 26.7949 35.0754 27.3504 34.9478 27.9487C34.8201 28.5043 34.5435 28.9957 34.118 29.4231C33.6924 29.8077 33.1392 30 32.4583 30C31.5647 30 30.8413 29.594 30.2881 28.782L15.9898 4.74359H18.7346L4.50013 28.782C3.98947 29.594 3.24477 30 2.26602 30C1.28727 30 0.627678 29.594 0.287242 28.782C-0.0957474 27.9273 -0.0957474 27.094 0.287242 26.2821L15.2238 1.34615C15.9047 0.448718 16.6494 0 17.4579 0C18.4367 0 19.1814 0.448718 19.692 1.34615L34.6286 26.2821Z" fill="white"/>
<path d="M15 8.5C15 7.11929 16.1193 6 17.5 6C18.8807 6 20 7.11929 20 8.5V77.5C20 78.8807 18.8807 80 17.5 80C16.1193 80 15 78.8807 15 77.5V8.5Z" fill="white"/>
</svg>
