<svg width="31" height="30" viewBox="0 0 31 30" fill="none" xmlns="http://www.w3.org/2000/svg">
<path d="M24.0833 0H6.58325C3.132 0 0.333252 2.79875 0.333252 6.25V23.75C0.333252 27.2013 3.132 30 6.58325 30H24.0833C27.5358 30 30.3333 27.2013 30.3333 23.75V6.25C30.3333 2.79875 27.5358 0 24.0833 0ZM20.3333 8.75H17.9283C17.1595 8.75 16.5833 9.065 16.5833 9.86125V11.25H20.3333L20.0358 15H16.5833V25H12.8333V15H10.3333V11.25H12.8333V8.84625C12.8333 6.31875 14.1633 5 17.1595 5H20.3333V8.75Z" fill="white"/>
</svg>
