<svg width="31" height="30" viewBox="0 0 31 30" fill="none" xmlns="http://www.w3.org/2000/svg">
<path d="M19.3745 6.86C18.3208 6.8125 18.0033 6.8025 15.3333 6.8025C12.6633 6.8025 12.347 6.8125 11.2933 6.86C8.58075 6.98375 7.317 8.26875 7.1945 10.9587C7.14575 12.0138 7.1345 12.33 7.1345 15C7.1345 17.67 7.14575 17.9862 7.19325 19.0413C7.317 21.7262 8.57575 23.0162 11.292 23.14C12.3458 23.1875 12.6633 23.1987 15.3333 23.1987C18.0045 23.1987 18.3208 23.1888 19.3745 23.1413C22.087 23.0175 23.3495 21.73 23.4733 19.0425C23.5208 17.9875 23.5308 17.6713 23.5308 15.0013C23.5308 12.3313 23.5208 12.015 23.4733 10.9613C23.3495 8.27 22.0845 6.98375 19.3745 6.86ZM15.3333 20.135C12.497 20.135 10.1983 17.8363 10.1983 15C10.1983 12.1637 12.4983 9.865 15.3333 9.865C18.1683 9.865 20.4683 12.1637 20.4683 15C20.4683 17.8363 18.1695 20.135 15.3333 20.135ZM20.672 10.8625C20.0095 10.8625 19.472 10.325 19.472 9.6625C19.472 9 20.0095 8.4625 20.672 8.4625C21.3345 8.4625 21.872 9 21.872 9.6625C21.872 10.325 21.3345 10.8625 20.672 10.8625ZM18.667 15C18.667 16.8412 17.1745 18.3337 15.3333 18.3337C13.492 18.3337 11.9995 16.8412 11.9995 15C11.9995 13.1587 13.492 11.6663 15.3333 11.6663C17.1745 11.6663 18.667 13.1587 18.667 15ZM24.0833 0H6.58325C3.132 0 0.333252 2.79875 0.333252 6.25V23.75C0.333252 27.2013 3.132 30 6.58325 30H24.0833C27.5358 30 30.3333 27.2013 30.3333 23.75V6.25C30.3333 2.79875 27.5358 0 24.0833 0V0ZM25.2733 19.1225C25.1083 22.7588 23.0845 24.7738 19.457 24.94C18.3895 24.9888 18.0495 25 15.3333 25C12.617 25 12.2783 24.9888 11.2108 24.94C7.57575 24.7738 5.56075 22.755 5.39325 19.1225C5.3445 18.0562 5.33325 17.7162 5.33325 15C5.33325 12.285 5.3445 11.9437 5.39325 10.8775C5.56075 7.2425 7.57825 5.22625 11.2108 5.06125C12.2783 5.01125 12.617 5 15.3333 5C18.0495 5 18.3895 5.01125 19.457 5.06C23.092 5.22625 25.1108 7.24875 25.2733 10.8763C25.322 11.9438 25.3333 12.285 25.3333 15C25.3333 17.7162 25.322 18.0562 25.2733 19.1225Z" fill="white"/>
</svg>
