<svg width="31" height="30" viewBox="0 0 31 30" fill="none" xmlns="http://www.w3.org/2000/svg">
<path d="M15.3783 6.67375C10.8345 6.67375 7.1395 10.3688 7.137 14.91C7.13575 16.7638 7.6795 18.1525 8.592 19.605L7.7595 22.645L10.877 21.8275C12.2733 22.6562 13.607 23.1538 15.3708 23.1538C19.9108 23.1538 23.6095 19.4587 23.6108 14.9162C23.6145 10.365 19.9333 6.675 15.3783 6.67375ZM20.2233 18.4525C20.017 19.0312 19.027 19.5588 18.552 19.63C18.1258 19.6938 17.5858 19.72 16.992 19.5325C16.632 19.4188 16.1708 19.2662 15.5808 19.0112C13.097 17.9387 11.4745 15.4375 11.3508 15.2725C11.227 15.1075 10.3395 13.93 10.3395 12.7112C10.3395 11.4925 10.9795 10.8938 11.2058 10.645C11.4333 10.395 11.7008 10.3325 11.8658 10.3325L12.3408 10.3412C12.4933 10.3488 12.697 10.2837 12.8983 10.7662C13.1045 11.2625 13.5995 12.4812 13.662 12.605C13.7233 12.7287 13.7658 12.8737 13.682 13.0387C13.5995 13.2037 13.5583 13.3075 13.4345 13.4513L13.0633 13.885C12.9395 14.0087 12.8108 14.1425 12.9545 14.39C13.0995 14.6375 13.5958 15.4487 14.332 16.105C15.2783 16.9487 16.0758 17.21 16.3233 17.3337C16.5708 17.4575 16.7158 17.4375 16.8595 17.2712C17.0045 17.1063 17.4783 16.5487 17.6433 16.3C17.8083 16.0513 17.9733 16.0938 18.2008 16.1763C18.4283 16.2588 19.6458 16.8575 19.8933 16.9825C20.1408 17.1063 20.3058 17.1688 20.3683 17.2712C20.4295 17.3775 20.4295 17.8738 20.2233 18.4525ZM24.0833 0H6.58325C3.132 0 0.333252 2.79875 0.333252 6.25V23.75C0.333252 27.2013 3.132 30 6.58325 30H24.0833C27.5358 30 30.3333 27.2013 30.3333 23.75V6.25C30.3333 2.79875 27.5358 0 24.0833 0ZM15.3745 24.8275C13.7158 24.8275 12.082 24.4112 10.6345 23.6213L5.38075 25L6.787 19.865C5.9195 18.3625 5.46325 16.6575 5.4645 14.91C5.467 9.445 9.912 5 15.3745 5C18.0258 5.00125 20.5145 6.03375 22.3858 7.90625C24.257 9.77875 25.287 12.27 25.2858 14.9175C25.2833 20.3825 20.837 24.8275 15.3745 24.8275Z" fill="white"/>
</svg>
